<svg version="1.1" id="Layer_1" xmlns="http://www.w3.org/2000/svg" xmlns:xlink="http://www.w3.org/1999/xlink" x="0px" y="0px"
	 width="100%" height="100%" viewBox="0 0 4838 2721" enable-background="new 0 0 4838 2721" xml:space="preserve">
<path fill="none" opacity="1.000000" stroke="#b8b8b8 " stroke-linecap="round" stroke-linejoin="round" stroke-width="5.000000"
	d="
M1817.000000,1945.000000 
	C1798.066406,1929.162720 1777.607910,1915.290161 1758.917847,1899.094727 
	C1719.739502,1865.145386 1683.743896,1828.456543 1654.941284,1785.038940 
	C1624.666626,1739.402710 1602.484009,1689.848877 1586.492798,1637.848511 
	C1577.113281,1607.348267 1569.875122,1576.007446 1565.700317,1544.039185 
	C1562.179321,1517.077148 1559.263794,1490.185425 1557.472290,1463.034790 
	C1556.368896,1446.311646 1555.933472,1429.645630 1556.207153,1413.003418 
	C1556.630371,1387.262085 1559.210327,1361.626221 1561.571289,1335.960571 
	C1563.861206,1311.067627 1568.236694,1286.549072 1572.462524,1262.079834 
	C1576.378418,1239.406616 1580.191772,1216.668335 1583.514282,1193.929077 
	C1584.982300,1183.882446 1585.831787,1173.393799 1586.153809,1163.004761 
	C1587.250977,1127.618164 1583.051636,1092.366943 1583.982666,1056.999512 
	C1585.156494,1012.406189 1597.888184,972.508606 1629.939941,939.940918 
	C1652.916504,916.594727 1680.963867,902.771240 1711.988770,893.960388 
	C1723.828003,890.598083 1736.080688,888.244751 1746.058350,880.071228 
	C1750.078857,876.777649 1755.304077,874.388550 1753.916260,868.018250 
	C1752.577148,861.871643 1747.159912,859.910828 1741.985962,858.038696 
	C1740.713501,857.578125 1739.164917,857.344299 1737.975708,857.198547 
	C1724.116699,855.500244 1715.488037,850.115967 1715.580566,833.997620 
	C1715.626099,826.086426 1705.789795,820.337158 1697.000244,819.992432 
	C1680.665894,819.351868 1664.255981,819.424011 1648.023926,817.766052 
	C1634.452148,816.379822 1620.825928,812.810364 1610.135010,803.839050 
	C1595.190186,791.297791 1593.699341,773.404968 1608.015625,752.010498 
	C1616.256958,739.694702 1628.735840,733.216431 1642.015869,728.040588 
	C1649.891235,724.971191 1657.742310,722.144531 1664.054810,716.056824 
	C1671.946533,708.446167 1672.331299,700.136658 1665.044800,691.960083 
	C1658.743164,684.888794 1650.452148,681.340576 1641.988403,678.029541 
	C1634.378418,675.052551 1627.484741,670.970337 1620.960571,666.052307 
	C1611.967529,659.273193 1611.063965,647.594360 1619.092773,638.078247 
	C1626.227539,629.621948 1634.669312,622.585876 1644.967163,617.927368 
	C1651.476440,614.982849 1657.656494,611.313782 1664.002686,608.005066 
	C1671.312012,604.194336 1673.006226,598.743164 1670.079468,590.970093 
	C1661.223145,567.449524 1662.014160,564.369385 1681.032349,547.035522 
	C1691.853516,537.172668 1702.729126,527.330994 1714.116089,518.143799 
	C1719.679688,513.655151 1723.419800,508.398193 1726.655518,501.599152 
	C1718.666626,493.791595 1710.707520,499.170990 1704.110718,502.238190 
	C1678.564087,514.115845 1655.247681,529.817505 1633.038086,547.049072 
	C1576.519531,590.899414 1527.209229,641.679932 1487.037842,701.025574 
	C1456.819580,745.667480 1436.188843,794.672302 1424.334473,847.075684 
	C1419.517822,868.367554 1416.065674,890.087280 1413.717529,911.969666 
	C1410.892578,938.294250 1407.687256,964.545776 1405.732544,990.980225 
	C1404.327637,1009.980408 1403.253662,1029.005615 1401.762695,1047.981323 
	C1396.030518,1120.936279 1398.266479,1193.988403 1398.260864,1267.000000 
	C1398.259155,1288.968994 1399.330933,1311.017700 1400.320557,1332.985596 
	C1401.416870,1357.318237 1402.967163,1381.650391 1404.303833,1405.983276 
	C1405.842651,1433.994629 1408.006104,1462.007080 1410.261719,1489.978882 
	C1412.036499,1511.985962 1413.602051,1534.067749 1416.281860,1555.965454 
	C1418.973755,1577.963867 1420.617554,1600.071045 1423.561035,1622.058716 
	C1425.503784,1636.570435 1426.395386,1651.409546 1428.316162,1665.958252 
	C1430.739258,1684.309448 1432.699463,1702.747437 1435.515503,1721.074463 
	C1437.433350,1733.557007 1438.504272,1746.385010 1440.254150,1758.964600 
	C1442.531616,1775.336426 1445.160645,1791.726562 1447.515259,1808.069824 
	C1449.669678,1823.024658 1451.825317,1838.031982 1454.111938,1852.982910 
	C1457.027466,1872.045776 1460.411011,1891.062866 1463.530762,1910.077026 
	C1466.366699,1927.361694 1469.920044,1944.573486 1472.058472,1961.992798 
	C1472.678101,1967.039551 1474.000122,1972.000000 1475.000122,1977.000000 
"/>
<path fill="none" opacity="1.000000" stroke="#b8b8b8" stroke-linecap="round" stroke-linejoin="round" stroke-width="5.000000"
	d="
M2813.000000,1976.000000 
	C2818.194336,1962.470215 2818.896973,1947.975586 2821.847168,1933.967773 
	C2825.752686,1915.423218 2828.465332,1896.612915 2831.561523,1877.927368 
	C2834.024902,1863.059448 2836.089844,1848.009644 2838.153076,1833.021118 
	C2840.318359,1817.291260 2843.015381,1801.605957 2845.596436,1785.933472 
	C2847.436523,1774.757690 2848.429199,1763.309204 2849.948486,1751.993042 
	C2852.546143,1732.649536 2855.252686,1713.304688 2857.618652,1693.953369 
	C2859.279541,1680.367432 2860.582031,1666.635010 2862.250488,1653.030762 
	C2864.091309,1638.021240 2864.671631,1622.863647 2867.758789,1607.950073 
	C2869.227783,1600.852661 2869.243652,1593.262573 2869.661865,1585.980591 
	C2871.119629,1560.585571 2875.139404,1535.452026 2876.315918,1510.014648 
	C2877.070801,1493.693604 2879.048340,1477.371338 2880.281982,1461.021240 
	C2881.790527,1441.022583 2882.950928,1421.019287 2884.278564,1401.018433 
	C2886.048096,1374.355225 2887.004883,1347.688110 2888.229492,1321.010498 
	C2890.754395,1266.022949 2892.978027,1211.016846 2891.637451,1156.008789 
	C2891.028564,1131.012085 2890.975098,1105.970825 2889.731689,1081.013306 
	C2888.602539,1058.346069 2887.037354,1035.681885 2885.662842,1013.020447 
	C2884.347656,991.340027 2882.458496,969.601196 2879.836914,948.019775 
	C2874.184814,901.487366 2868.328857,855.064392 2854.272217,809.915283 
	C2836.999512,754.439209 2807.821777,706.073608 2772.084717,660.932861 
	C2730.104980,607.906799 2680.781738,562.941833 2624.895996,525.153992 
	C2610.221680,515.231812 2595.373535,505.253876 2578.108398,499.664948 
	C2575.324463,498.763824 2572.721680,498.007080 2570.002197,498.082672 
	C2564.397217,498.238495 2561.948242,502.373474 2565.101562,506.929626 
	C2569.687012,513.555359 2575.722656,518.883972 2581.933350,524.079712 
	C2593.333496,533.617065 2604.874756,543.023682 2615.020508,553.980957 
	C2627.530762,567.491882 2627.732422,571.142883 2620.158203,588.070801 
	C2615.322266,598.879272 2616.281250,603.986755 2627.075684,609.861145 
	C2638.893311,616.292603 2651.739990,620.768860 2662.131836,629.849121 
	C2664.436279,631.862854 2667.311768,633.640137 2668.875977,636.079590 
	C2677.571289,649.638916 2681.006104,655.416687 2665.006348,668.007935 
	C2658.340576,673.253601 2650.443115,676.237366 2642.937500,679.870667 
	C2638.902588,681.823914 2634.791260,683.532104 2630.980225,685.969055 
	C2613.817871,696.943420 2613.488281,708.342468 2629.985352,720.020569 
	C2637.931641,725.645569 2647.259033,728.209778 2656.046143,731.889648 
	C2673.586670,739.235413 2684.143799,752.840149 2689.796387,770.066772 
	C2695.380859,787.084595 2683.397217,805.011780 2664.038086,812.104004 
	C2650.050293,817.228455 2635.590820,818.305847 2620.998779,818.973083 
	C2610.671875,819.445435 2600.328369,819.559082 2590.001465,820.032349 
	C2581.000000,820.444946 2575.670410,825.570190 2574.000244,835.000000 
	C2571.103516,851.353821 2570.102539,851.968689 2553.052246,856.210083 
	C2548.603516,857.316772 2543.928223,858.796387 2539.921143,861.898132 
	C2531.973633,868.049805 2531.893311,871.401001 2539.973633,878.032104 
	C2550.815918,886.929810 2563.984863,890.316956 2577.010010,893.964111 
	C2634.732178,910.126831 2676.990234,943.133911 2696.093262,1001.969788 
	C2700.976807,1017.011353 2704.059326,1032.181274 2704.015625,1048.000000 
	C2703.954102,1070.333252 2704.668213,1092.692627 2703.800049,1114.992188 
	C2703.032959,1134.696045 2702.411865,1154.333740 2704.000977,1173.999878 
	C2705.575439,1193.483643 2708.426025,1212.755981 2711.520020,1232.076904 
	C2714.290771,1249.379883 2717.494141,1266.648071 2720.270508,1283.956543 
	C2722.838623,1299.965088 2724.415771,1316.133667 2727.795410,1332.043457 
	C2729.166748,1338.500244 2729.114258,1345.381104 2729.688477,1352.026855 
	C2733.106689,1391.603394 2733.757080,1431.423218 2731.597412,1470.978027 
	C2727.781738,1540.857300 2714.404785,1609.279907 2689.767334,1674.912598 
	C2665.980225,1738.279419 2632.468018,1796.156006 2586.022705,1846.021240 
	C2553.943359,1880.462891 2518.143799,1910.564819 2480.062744,1938.086914 
	C2477.460938,1939.967285 2473.841553,1941.174927 2473.000000,1945.000000 
"/>
<path fill="none" opacity="1.000000" stroke="#b8b8b8" stroke-linecap="round" stroke-linejoin="round" stroke-width="5.000000"
	d="
M2615.000000,2723.000000 
	C2598.108154,2724.576660 2582.085938,2720.996094 2565.943115,2716.191162 
	C2538.150391,2707.918213 2509.475342,2703.383301 2481.045166,2697.771240 
	C2454.130859,2692.458008 2427.033936,2688.326904 2399.950439,2684.335693 
	C2381.432617,2681.606934 2362.638916,2680.012695 2344.043213,2677.658447 
	C2320.393799,2674.664551 2296.558350,2673.770508 2272.968262,2670.210449 
	C2263.788574,2668.824951 2254.288086,2668.852295 2244.981445,2668.337402 
	C2199.036133,2665.793945 2153.032227,2661.775146 2107.018555,2664.331787 
	C2081.681641,2665.739746 2056.198242,2665.932373 2030.968506,2669.794434 
	C2022.121216,2671.148682 2012.990112,2670.891846 2003.972168,2671.682861 
	C1978.576782,2673.911377 1953.288452,2676.833496 1927.964844,2679.688721 
	C1905.930176,2682.173096 1883.870239,2684.712891 1862.049805,2688.302734 
	C1831.238281,2693.372314 1800.365723,2698.177002 1769.891846,2705.552979 
	C1751.394775,2710.030273 1731.921143,2711.671387 1714.184082,2718.479492 
	C1700.996704,2723.541016 1688.146118,2722.472900 1675.000000,2723.000000 
"/>
<path fill="none" opacity="1.000000" stroke="#b8b8b8" stroke-linecap="round" stroke-linejoin="round" stroke-width="5.000000"
	d="
M3505.000000,2027.000000 
	C3510.577881,2019.206909 3510.217285,2009.720703 3511.789795,2000.962280 
	C3515.487061,1980.366211 3518.757568,1959.635986 3521.527588,1938.936768 
	C3524.204102,1918.939087 3527.454590,1899.001587 3530.343994,1879.049805 
	C3533.401367,1857.940063 3537.782959,1836.944580 3541.590088,1815.925781 
	C3545.633545,1793.604004 3549.673584,1771.275513 3553.988770,1748.997803 
	C3559.651367,1719.765381 3566.202637,1690.688354 3574.251953,1662.070923 
	C3584.633545,1625.162598 3595.630371,1588.322998 3603.541748,1550.903076 
	C3616.121094,1491.403442 3587.435059,1435.215332 3530.883057,1411.276367 
	C3512.479004,1403.485596 3493.001221,1400.594727 3472.909424,1408.777588 
	C3452.118652,1417.245117 3444.720703,1444.345825 3461.104248,1463.912720 
	C3471.420898,1476.233521 3485.305908,1483.755981 3499.912842,1490.197754 
	C3504.755859,1492.333618 3510.588379,1494.168579 3513.000000,1500.000000 
"/>
<path fill="none" opacity="1.000000" stroke="#b8b8b8" stroke-linecap="round" stroke-linejoin="round" stroke-width="5.000000"
	d="
M775.000000,1500.000000 
	C780.677002,1492.064575 790.108337,1490.286255 798.013062,1486.024170 
	C807.780396,1480.757812 817.178589,1475.072632 825.035461,1467.034668 
	C835.645020,1456.180542 839.005554,1443.119873 834.766113,1429.070557 
	C830.369629,1414.500610 819.082031,1408.326538 804.051575,1405.704468 
	C774.937500,1400.625366 750.929688,1411.658325 729.187683,1428.245972 
	C705.549744,1446.280151 691.429260,1471.396118 684.113281,1500.028931 
	C678.599670,1521.608154 683.024353,1543.149536 688.268372,1563.932251 
	C700.769470,1613.475708 715.880310,1662.382324 727.529358,1712.110229 
	C734.158752,1740.410400 739.256775,1769.214355 744.391235,1797.930054 
	C748.748352,1822.298096 753.503235,1846.667969 757.569763,1871.071655 
	C760.768860,1890.270142 763.378113,1909.673584 766.286011,1928.956909 
	C769.207947,1948.333008 771.991211,1967.769775 775.567444,1987.080078 
	C777.383789,1996.887451 779.641235,2006.936890 779.760681,2017.002808 
	C779.817810,2021.819824 782.177429,2024.244629 785.000000,2027.000000 
"/>
<path fill="none" opacity="1.000000" stroke="#b8b8b8" stroke-linecap="round" stroke-linejoin="round" stroke-width="5.000000"
	d="
M1331.000000,2039.000000 
	C1335.696655,2031.689331 1335.116943,2022.885376 1337.718262,2014.908081 
	C1342.824707,1999.249268 1353.683228,1989.738770 1369.998413,1990.075317 
	C1388.337158,1990.453369 1407.355103,1986.539551 1424.825195,1992.511230 
	C1439.882080,1997.658081 1450.443604,1990.876465 1461.969116,1984.940063 
	C1500.279785,1965.207886 1538.549194,1945.349487 1578.105713,1928.244385 
	C1592.285034,1922.112915 1606.688599,1915.447388 1623.003906,1915.832275 
	C1629.393555,1915.983032 1634.757690,1917.404419 1640.041870,1920.937378 
	C1671.329956,1941.855713 1701.312500,1964.664062 1732.996460,1985.005493 
	C1783.668091,2017.537354 1835.919922,2047.022705 1893.018555,2066.946777 
	C1927.236084,2078.886719 1962.257080,2087.799316 1997.981812,2094.102783 
	C2020.896362,2098.145752 2043.800293,2101.779785 2066.969971,2104.277344 
	C2092.613525,2107.041748 2118.246094,2109.651367 2144.001221,2109.836426 
	C2170.107178,2110.023438 2196.041992,2106.841553 2222.031982,2104.332031 
	C2246.884277,2101.932373 2271.520752,2098.294189 2295.944336,2093.704346 
	C2322.294678,2088.752197 2348.333740,2082.090820 2374.040039,2074.128906 
	C2420.741699,2059.664307 2464.668457,2039.183594 2507.002441,2015.004395 
	C2553.263672,1988.582153 2597.005371,1958.280029 2639.763672,1926.680054 
	C2657.061523,1913.896240 2673.521973,1914.188354 2692.021240,1920.942139 
	C2726.343750,1933.472412 2758.332275,1950.950928 2791.003906,1966.991943 
	C2802.646484,1972.708008 2814.947754,1977.362061 2825.839600,1984.253418 
	C2838.565186,1992.305176 2851.304688,1996.475830 2865.986816,1991.957275 
	C2877.209473,1988.503540 2888.660156,1990.521484 2900.001953,1990.047363 
	C2906.324219,1989.783081 2912.666992,1989.972900 2919.000000,1990.005127 
	C2935.453857,1990.088867 2944.736816,1998.095215 2950.293701,2013.896729 
	C2953.208740,2022.186401 2954.972168,2030.581055 2957.000000,2039.000000 
"/>
<path fill="none" opacity="1.000000" stroke="#b8b8b8" stroke-linecap="round" stroke-linejoin="round" stroke-width="5.000000"
	d="
M1567.000000,981.000000 
	C1539.895020,1003.448242 1524.203857,1032.994141 1513.979370,1065.993652 
	C1506.697021,1089.497314 1502.559204,1113.485107 1499.654053,1137.958984 
	C1495.894409,1169.632080 1495.334717,1201.305542 1496.257812,1232.992432 
	C1496.958008,1257.030396 1498.981323,1281.140137 1502.259399,1304.964355 
	C1506.305908,1334.372925 1510.593262,1363.766602 1515.592651,1393.069458 
	C1521.237305,1426.153931 1527.447388,1459.122314 1534.236938,1491.951050 
	C1541.520264,1527.168213 1550.675049,1561.998047 1558.986328,1597.003296 
	C1559.763916,1600.277954 1562.440552,1603.389282 1560.000000,1607.000000 
"/>
<path fill="none" opacity="1.000000" stroke="#b8b8b8" stroke-linecap="round" stroke-linejoin="round" stroke-width="5.000000"
	d="
M2723.000000,981.000000 
	C2755.358154,1010.859497 2772.886230,1048.685669 2781.981934,1091.003906 
	C2785.952393,1109.476562 2788.422363,1128.119141 2790.294678,1146.970703 
	C2793.674805,1181.000488 2792.418457,1215.054565 2791.454834,1248.984497 
	C2790.792236,1272.302734 2788.127441,1295.776245 2784.473877,1319.074341 
	C2782.037109,1334.612549 2779.935791,1350.325317 2778.012207,1366.001465 
	C2775.874756,1383.417847 2772.430664,1400.630981 2769.752930,1417.961792 
	C2766.842529,1436.796875 2761.377441,1455.226807 2758.160400,1474.027466 
	C2754.305420,1496.556152 2748.381592,1518.604004 2743.864746,1540.972656 
	C2739.865967,1560.775024 2733.432617,1580.039185 2729.939697,1599.989502 
	C2729.749268,1601.078125 2727.737305,1601.380493 2728.000000,1603.000000 
"/>
<path fill="none" opacity="1.000000" stroke="#b8b8b8" stroke-linecap="round" stroke-linejoin="round" stroke-width="5.000000"
	d="
M782.000000,2036.000000 
	C785.267883,2039.529785 789.299255,2040.180542 794.001709,2040.102051 
	C809.997253,2039.835205 826.114746,2041.215576 841.973450,2039.718750 
	C866.627747,2037.391968 891.429016,2037.558960 916.032715,2034.242798 
	C928.200500,2032.602905 940.732727,2032.796265 953.012634,2032.454224 
	C981.336914,2031.665405 1009.638733,2029.981812 1037.992920,2029.542236 
	C1061.305664,2029.181030 1084.659790,2027.579712 1107.997681,2028.102295 
	C1151.672241,2029.080200 1195.357544,2030.156616 1238.989136,2032.228271 
	C1258.989014,2033.177734 1279.036865,2034.699707 1298.947266,2036.563843 
	C1310.203735,2037.617676 1322.204956,2035.672974 1332.969360,2040.390137 
	C1333.283203,2046.622070 1328.764893,2048.323975 1324.963623,2049.912842 
	C1293.009766,2063.270508 1261.888916,2078.380859 1230.939331,2093.878906 
	C1229.407715,2094.645996 1227.491821,2095.461426 1226.121338,2096.219238 
	C1201.440796,2109.867920 1199.268555,2117.492432 1203.677856,2147.048096 
	C1207.801514,2174.689941 1215.072388,2201.767090 1216.532349,2229.972412 
	C1217.309692,2244.989502 1218.406006,2260.049805 1217.776001,2274.990479 
	C1216.256714,2311.023682 1229.210327,2341.631592 1249.919189,2370.058838 
	C1270.177124,2397.867188 1291.190796,2425.221436 1306.993042,2456.003662 
	C1318.303711,2478.036133 1326.145630,2500.867432 1328.297119,2525.974609 
	C1331.084961,2558.508545 1324.407104,2590.541992 1325.587158,2623.014893 
	C1326.623413,2651.531982 1337.453735,2674.426270 1357.048218,2693.951660 
	C1368.277588,2705.141846 1382.636108,2712.245361 1395.097290,2721.874023 
	C1399.006348,2724.894775 1404.350098,2722.432373 1409.000000,2723.000000 
"/>
<path fill="none" opacity="1.000000" stroke="#b8b8b8" stroke-linecap="round" stroke-linejoin="round" stroke-width="5.000000"
	d="
M2854.000000,1996.000000 
	C2862.541016,2005.779053 2875.013672,2008.717285 2886.067383,2013.855103 
	C2941.253174,2039.505493 2996.748047,2064.492188 3051.906982,2090.199463 
	C3059.664062,2093.814697 3066.686523,2099.371094 3074.131104,2103.778564 
	C3086.619385,2111.172363 3089.872559,2122.121338 3087.843262,2134.975342 
	C3084.775879,2154.403076 3080.706787,2173.674561 3076.985352,2192.997070 
	C3074.563965,2205.569336 3072.610352,2218.281006 3072.189941,2231.006348 
	C3071.408203,2254.666504 3073.036621,2278.428223 3069.915039,2301.988770 
	C3067.419922,2320.820312 3060.092041,2338.079590 3049.914062,2353.944824 
	C3034.133301,2378.542725 3015.660645,2401.284668 2999.906982,2425.940430 
	C2986.963135,2446.198730 2975.627197,2466.964844 2967.679932,2489.888916 
	C2958.998779,2514.929199 2958.813477,2540.500977 2960.754639,2565.942383 
	C2961.388916,2574.260498 2960.366943,2582.844971 2962.192871,2590.956543 
	C2964.074951,2599.318604 2963.930664,2607.622803 2963.990723,2616.000000 
	C2964.249268,2652.201172 2949.648193,2680.921143 2921.114502,2703.147217 
	C2912.135010,2710.141357 2901.389893,2714.197754 2892.888916,2721.876953 
	C2889.723389,2724.736572 2884.988770,2722.532715 2881.000000,2723.000000 
"/>
<path fill="none" opacity="1.000000" stroke="#b8b8b8" stroke-linecap="round" stroke-linejoin="round" stroke-width="5.000000"
	d="
M3523.000000,1501.000000 
	C3515.980957,1497.657349 3510.432129,1503.826538 3503.999023,1503.947876 
	C3493.669434,1504.142578 3483.331055,1503.882935 3473.001221,1504.072388 
	C3469.961426,1504.128174 3467.113037,1503.766724 3463.842773,1505.739380 
	C3457.679199,1509.457397 3455.732666,1512.686890 3460.077148,1517.936157 
	C3469.197510,1528.956665 3481.244141,1536.769653 3492.013428,1545.984375 
	C3497.577637,1550.745483 3504.983887,1553.528320 3508.119873,1561.397461 
	C3504.031494,1568.440063 3496.937500,1565.975586 3491.002930,1565.853149 
	C3480.244141,1565.631104 3471.913330,1569.101685 3467.023926,1579.011841 
	C3460.173340,1592.897095 3462.370361,1614.429810 3481.937500,1620.211304 
	C3494.538086,1623.934326 3507.284424,1626.843750 3519.983398,1630.065796 
	C3533.135254,1633.402588 3545.785889,1638.874512 3547.653564,1654.042603 
	C3549.237061,1666.905273 3548.406738,1680.086304 3545.108887,1693.027710 
	C3536.765381,1725.771118 3525.400879,1757.588989 3516.044434,1790.012817 
	C3503.353516,1833.993164 3489.197754,1877.574463 3481.808350,1922.968750 
	C3478.992920,1940.263916 3475.319092,1957.451416 3476.152588,1974.992798 
	C3477.105713,1995.051758 3481.450928,2013.924316 3500.977783,2025.038818 
	C3502.810059,2026.081665 3505.038330,2027.358765 3505.794434,2029.089844 
	C3506.500244,2030.705444 3509.104736,2031.624756 3508.003906,2034.154541 
	C3505.516846,2039.033447 3501.299316,2040.148682 3495.999023,2040.080811 
	C3479.001709,2039.863281 3461.874268,2041.306641 3445.030029,2039.687134 
	C3421.039795,2037.380737 3396.903564,2037.536621 3372.966064,2034.247314 
	C3361.135986,2032.621826 3348.926270,2032.738281 3336.989014,2032.445557 
	C3307.992188,2031.734375 3279.004883,2030.249390 3250.012695,2029.507080 
	C3221.342285,2028.773193 3192.667236,2027.668945 3164.002930,2028.167969 
	C3139.004150,2028.603271 3113.989014,2029.443481 3089.014160,2030.377075 
	C3065.689209,2031.248779 3042.333252,2032.741455 3019.014160,2034.221924 
	C3001.344971,2035.343628 2983.764404,2037.742310 2966.011230,2038.338135 
	C2962.520020,2038.455322 2955.464844,2036.130005 2955.000000,2044.000000 
"/>
<path fill="none" opacity="1.000000" stroke="#b8b8b8" stroke-linecap="round" stroke-linejoin="round" stroke-width="5.000000"
	d="
M3484.000000,2012.000000 
	C3476.407227,2014.187988 3469.202881,2010.552856 3462.072510,2009.505859 
	C3444.061279,2006.860718 3425.866455,2006.533203 3407.997803,2006.440430 
	C3258.668457,2005.665283 3109.333252,2005.998047 2960.000000,2006.013550 
	C2956.975098,2006.013794 2953.871338,2005.508423 2951.000000,2007.000000 
"/>
<path fill="none" opacity="1.000000" stroke="#b8b8b8" stroke-linecap="round" stroke-linejoin="round" stroke-width="5.000000"
	d="
M1338.000000,2007.500000 
	C1334.553955,2005.382324 1330.723145,2006.010986 1327.000000,2006.010620 
	C1178.333374,2005.998047 1029.664673,2005.623535 881.001892,2006.372559 
	C856.384277,2006.496582 831.232178,2006.332275 807.093018,2012.371826 
	C796.423218,2015.041504 787.996277,2023.198730 781.947205,2032.967285 
	C781.363770,2033.909302 780.959473,2035.772583 779.000000,2035.000000 
"/>
<path fill="none" opacity="1.000000" stroke="#b8b8b8" stroke-linecap="round" stroke-linejoin="round" stroke-width="5.000000"
	d="
M782.000000,1563.000000 
	C787.354248,1567.874512 793.923584,1565.775513 800.001831,1565.924072 
	C813.330811,1566.250000 822.105530,1573.501831 825.999939,1588.000000 
	C828.825684,1598.519775 822.964783,1611.290771 813.018738,1617.032471 
	C799.669067,1624.738770 784.608826,1627.071289 769.950195,1629.724976 
	C745.120361,1634.219727 738.165710,1655.318237 741.346008,1676.100098 
	C747.012085,1713.125488 761.102478,1747.397095 771.039062,1782.989136 
	C781.196289,1819.371582 792.960815,1855.362427 801.595154,1892.095215 
	C808.649475,1922.106079 814.368347,1952.694702 812.087830,1984.006348 
	C811.630005,1990.291870 810.226135,1996.382324 807.699036,2001.861206 
	C806.280945,2004.935669 804.821167,2007.607056 805.000000,2011.000000 
"/>
<path fill="none" opacity="1.000000" stroke="#b8b8b8" stroke-linecap="round" stroke-linejoin="round" stroke-width="5.000000"
	d="
M2821.000000,765.000000 
	C2799.119385,780.290039 2774.515625,790.067932 2749.973633,799.934570 
	C2745.772949,801.623352 2741.884277,803.727783 2737.949463,805.908997 
	C2732.509277,808.924683 2730.691895,813.750793 2732.186035,818.946472 
	C2734.583984,827.285400 2735.346191,835.478271 2734.035645,844.005493 
	C2732.921875,851.252014 2735.444824,856.769165 2740.853271,862.147644 
	C2757.229980,878.434021 2775.448486,892.748230 2789.227539,911.835815 
	C2810.722168,941.611755 2827.036133,973.856262 2839.999023,1008.000366 
	C2850.885986,1036.677246 2859.502686,1065.976074 2866.251953,1095.943237 
	C2870.668945,1115.554199 2875.354004,1135.053101 2878.053955,1154.992676 
	C2878.686035,1159.661621 2880.877441,1164.112793 2880.000000,1169.000000 
"/>
<path fill="none" opacity="1.000000" stroke="#b8b8b8" stroke-linecap="round" stroke-linejoin="round" stroke-width="5.000000"
	d="
M1409.000000,1169.000000 
	C1417.091064,1105.471680 1433.175171,1043.979858 1458.189331,985.080383 
	C1477.241333,940.219727 1502.614136,899.446655 1541.930054,868.910034 
	C1545.785522,865.915466 1548.943237,861.876221 1551.923828,857.942383 
	C1555.036133,853.834595 1557.408813,850.133972 1554.503906,843.769958 
	C1552.467773,839.309326 1553.218018,832.687500 1554.911011,826.973633 
	C1558.983154,813.230469 1556.179810,807.784485 1543.003052,801.993042 
	C1517.189819,790.647766 1490.586792,780.920898 1467.000000,765.000000 
"/>
<path fill="none" opacity="1.000000" stroke="#b8b8b8" stroke-linecap="round" stroke-linejoin="round" stroke-width="5.000000"
	d="
M2375.000000,1816.000000 
	C2374.666748,1813.333374 2373.921143,1810.644287 2374.063965,1808.003418 
	C2375.366699,1783.915161 2369.767578,1761.187012 2361.058838,1738.976929 
	C2357.933350,1731.005737 2355.270508,1722.959106 2355.795410,1713.988037 
	C2356.130859,1708.250000 2357.746094,1704.599609 2362.950195,1701.903809 
	C2371.938232,1697.247681 2380.569092,1691.873047 2391.792969,1690.970215 
	C2389.723877,1622.715454 2382.685547,1555.172485 2365.551270,1488.851196 
	C2355.050293,1489.733887 2347.677734,1495.718750 2341.169678,1502.171143 
	C2334.955566,1508.332397 2332.662598,1515.845581 2336.838623,1525.072998 
	C2346.509766,1546.442017 2358.503174,1566.750000 2364.255615,1589.936523 
	C2368.448486,1606.836060 2372.093750,1623.702393 2374.066406,1640.992432 
	C2375.737305,1655.635742 2378.316406,1670.205933 2377.854980,1684.995483 
	C2377.753418,1688.255127 2382.089600,1688.771118 2381.000000,1692.000000 
"/>
<path fill="none" opacity="1.000000" stroke="#b8b8b8" stroke-linecap="round" stroke-linejoin="round" stroke-width="5.000000"
	d="
M2513.500000,2008.000000 
	C2502.877686,1988.565674 2491.572266,1969.607910 2478.110840,1951.915649 
	C2467.770996,1938.325439 2455.548828,1933.982422 2438.126465,1947.166992 
	C2425.151611,1956.985840 2413.227783,1968.214600 2401.038574,1979.043335 
	C2393.411133,1985.819458 2385.094238,1991.583984 2375.953125,1995.900513 
	C2361.640381,2002.659180 2347.195312,2001.120483 2333.001465,1994.996704 
	C2324.556152,1991.353149 2316.089600,1987.876587 2307.013916,1985.935059 
	C2295.517578,1983.475952 2285.748291,1987.173584 2277.087646,1994.109619 
	C2272.570557,1997.727417 2267.887451,2000.964233 2263.013916,2004.021973 
	C2255.157227,2008.951416 2247.173340,2009.950073 2239.012451,2004.979614 
	C2230.955811,2000.072632 2222.790283,1995.302490 2215.045898,1989.933838 
	C2201.135742,1980.291382 2185.488281,1976.584229 2168.997314,1976.094238 
	C2154.010498,1975.648926 2138.993896,1976.273193 2124.001465,1975.932495 
	C2104.200439,1975.482422 2086.505371,1981.706787 2070.024170,1992.038330 
	C2063.677979,1996.016357 2057.701172,2000.497559 2051.093018,2004.167358 
	C2041.496582,2009.496460 2032.797607,2009.576416 2023.982666,2003.023315 
	C2021.092896,2000.875122 2017.633545,1999.385132 2015.060303,1996.936646 
	C1999.790405,1982.407959 1982.819946,1983.478760 1964.996460,1990.991699 
	C1955.629395,1994.940186 1946.456055,1999.208984 1936.008423,2000.098755 
	C1916.023682,2001.800903 1902.023804,1990.479736 1888.010132,1978.987671 
	C1874.841553,1968.188721 1863.035156,1955.773926 1848.997314,1946.003784 
	C1829.421753,1932.379761 1819.899292,1940.801270 1807.921143,1955.937622 
	C1794.893066,1972.400146 1785.211182,1990.842163 1775.000000,2009.000000 
"/>
<path fill="none" opacity="1.000000" stroke="#b8b8b8" stroke-linecap="round" stroke-linejoin="round" stroke-width="5.000000"
	d="
M1909.000122,1692.000000 
	C1910.666748,1676.666626 1912.113159,1661.305542 1914.047119,1646.005981 
	C1917.729858,1616.872681 1922.223389,1587.899536 1935.013672,1561.006470 
	C1940.263916,1549.966919 1945.723389,1539.026978 1950.984009,1527.992310 
	C1956.097412,1517.266235 1955.085693,1510.509399 1946.976562,1502.022461 
	C1940.895142,1495.657837 1934.410278,1489.818481 1924.565918,1488.839233 
	C1919.432861,1498.944702 1918.328613,1510.193726 1916.132080,1521.026733 
	C1911.689453,1542.937012 1907.761963,1564.961060 1904.145508,1587.023926 
	C1903.069458,1593.589233 1902.739258,1600.452026 1902.440308,1607.020020 
	C1901.878174,1619.372070 1900.313843,1631.659424 1899.560913,1643.973145 
	C1898.683472,1658.324219 1898.133179,1672.639526 1897.967651,1686.999634 
	C1897.901978,1692.697021 1891.705444,1695.288574 1891.335205,1701.963135 
	C1890.983521,1708.304199 1890.893433,1714.620361 1890.904053,1721.000122 
	C1890.921997,1731.666138 1890.189819,1742.331299 1890.031372,1753.000488 
	C1889.743408,1772.397949 1894.212158,1791.184082 1898.369995,1809.917847 
	C1898.961060,1812.580444 1899.088257,1818.916016 1906.014160,1818.123291 
	C1920.613159,1816.452393 1928.504883,1825.636108 1935.065674,1836.961914 
	C1939.957153,1845.405762 1940.375732,1855.021484 1941.649414,1864.049438 
	C1944.581543,1884.833496 1950.214600,1904.488159 1960.000000,1923.000000 
"/>
<path fill="none" opacity="1.000000" stroke="#b8b8b8" stroke-linecap="round" stroke-linejoin="round" stroke-width="5.000000"
	d="
M1325.000000,2576.000000 
	C1308.336060,2568.180176 1293.924316,2556.384033 1277.017334,2548.960449 
	C1263.568970,2543.055420 1250.201660,2538.048828 1235.006836,2537.701660 
	C1219.728638,2537.352539 1209.244263,2543.756348 1199.852051,2554.875000 
	C1191.772827,2564.439209 1185.533203,2575.055420 1180.143921,2586.070557 
	C1163.675537,2619.730225 1143.576782,2651.425781 1127.109131,2685.053467 
	C1121.401611,2696.708496 1115.498901,2708.414551 1112.149902,2721.039795 
	C1111.040527,2725.221680 1108.491089,2721.894531 1107.000000,2723.000000 
"/>
<path fill="none" opacity="1.000000" stroke="#b8b8b8" stroke-linecap="round" stroke-linejoin="round" stroke-width="5.000000"
	d="
M1341.000000,2465.000000 
	C1369.255371,2445.233643 1393.977051,2422.253906 1410.064209,2391.033203 
	C1422.091797,2367.690918 1428.678589,2343.108154 1432.432251,2317.062256 
	C1436.636963,2287.886963 1431.232422,2260.085205 1425.889282,2232.020996 
	C1424.433838,2224.376709 1418.180908,2222.582031 1411.062744,2220.755371 
	C1384.690308,2213.987061 1361.557739,2217.980225 1341.954468,2237.955322 
	C1329.911499,2250.226562 1320.595093,2264.558594 1314.338867,2280.136230 
	C1304.905640,2303.624756 1299.072266,2328.249512 1299.973022,2354.000977 
	C1301.292358,2391.723389 1313.372803,2423.939941 1345.923950,2446.111572 
	C1348.630859,2447.955322 1352.661255,2449.138428 1353.000000,2453.500000 
"/>
<path fill="none" opacity="1.000000" stroke="#b8b8b8" stroke-linecap="round" stroke-linejoin="round" stroke-width="5.000000"
	d="
M2947.000000,2465.000000 
	C2942.548340,2461.826172 2937.362305,2459.453369 2934.227783,2453.593750 
	C2941.574219,2445.803711 2950.758301,2440.540039 2958.151611,2433.151855 
	C2978.227295,2413.091553 2986.859131,2388.879639 2988.131836,2361.006104 
	C2989.634277,2328.102783 2983.826660,2297.134766 2968.130371,2267.929932 
	C2959.708008,2252.258789 2949.712402,2238.319824 2935.021729,2227.968994 
	C2917.974121,2215.957764 2899.146484,2216.069580 2880.086914,2220.383545 
	C2876.872070,2221.111328 2873.041504,2221.027588 2870.000000,2223.000000 
"/>
<path fill="none" opacity="1.000000" stroke="#b8b8b8" stroke-linecap="round" stroke-linejoin="round" stroke-width="5.000000"
	d="
M3178.000000,2723.000000 
	C3169.050781,2698.191650 3157.125977,2674.855957 3144.142578,2651.919189 
	C3128.866699,2624.930908 3114.821533,2597.248535 3099.937012,2570.034424 
	C3092.145508,2555.789551 3082.419189,2541.909424 3065.894775,2538.512207 
	C3050.928711,2535.435547 3035.445801,2538.229736 3020.945312,2544.880859 
	C3004.586426,2552.384277 2989.053467,2561.217773 2973.974121,2570.959961 
	C2971.227051,2572.734863 2968.876709,2575.639404 2965.000000,2575.000000 
"/>
<path fill="none" opacity="1.000000" stroke="#b8b8b8" stroke-linecap="round" stroke-linejoin="round" stroke-width="5.000000"
	d="
M2873.000000,2203.000000 
	C2866.498291,2224.111572 2858.296387,2245.054932 2856.469238,2267.039062 
	C2854.877930,2286.185303 2854.699463,2305.594482 2857.645508,2325.053711 
	C2861.295654,2349.166748 2868.763428,2371.558838 2879.948730,2393.026855 
	C2891.735352,2415.648438 2909.069824,2433.463379 2927.977783,2450.025391 
	C2929.765625,2451.591553 2931.448730,2453.102783 2934.000000,2453.000000 
"/>
<path fill="none" opacity="1.000000" stroke="#b8b8b8" stroke-linecap="round" stroke-linejoin="round" stroke-width="5.000000"
	d="
M2018.000000,1913.000000 
	C2008.106079,1902.244995 2003.923340,1887.282837 1992.128906,1877.839111 
	C1991.153076,1877.057739 1992.000000,1874.000000 1992.000000,1872.000000 
	C1992.000000,1858.333374 1990.778687,1844.526489 1992.326172,1831.037354 
	C1994.048218,1816.026733 1994.917969,1800.920288 1997.439331,1785.905884 
	C1999.658691,1772.689453 2002.912354,1758.602661 1997.905762,1745.034790 
	C1996.164673,1740.316406 1994.521973,1735.108521 1988.838135,1732.919189 
	C1976.610474,1740.536743 1975.827881,1754.392578 1972.429565,1766.124390 
	C1969.119507,1777.551880 1967.786865,1790.069946 1968.325317,1801.985352 
	C1969.411499,1826.009155 1972.373291,1849.896851 1979.735107,1873.084106 
	C1981.318604,1878.071533 1983.261108,1880.405518 1988.000000,1881.000000 
"/>
<path fill="none" opacity="1.000000" stroke="#b8b8b8" stroke-linecap="round" stroke-linejoin="round" stroke-width="5.000000"
	d="
M2303.000000,1920.000000 
	C2302.715576,1911.664673 2303.454102,1903.406860 2302.722656,1894.937622 
	C2302.000000,1886.570068 2296.616699,1879.648926 2297.799316,1870.972656 
	C2298.780518,1863.772949 2299.121582,1856.111206 2297.723877,1849.054688 
	C2295.864258,1839.664917 2296.706787,1830.323242 2295.893311,1821.009277 
	C2294.663330,1806.921997 2292.239746,1792.946655 2290.429688,1778.944458 
	C2288.868896,1766.870361 2288.082520,1754.028687 2292.322754,1742.114868 
	C2293.291992,1739.392090 2293.190430,1734.152344 2298.991699,1733.842529 
	C2304.643799,1733.540894 2305.948486,1737.399536 2308.012939,1740.992554 
	C2313.721436,1750.926758 2315.446533,1762.132080 2317.882324,1773.026245 
	C2321.116211,1787.491211 2320.537354,1802.341187 2319.834473,1816.992065 
	C2318.906494,1836.328247 2313.876709,1855.107056 2309.763916,1873.948486 
	C2308.966064,1877.604126 2305.429932,1880.942139 2301.000000,1882.000000 
"/>
<path fill="none" opacity="1.000000" stroke="#b8b8b8" stroke-linecap="round" stroke-linejoin="round" stroke-width="5.000000"
	d="
M2145.000000,1821.000000 
	C2140.323242,1833.339600 2132.170166,1835.933838 2123.000000,1828.000122 
	C2114.818115,1820.921753 2113.145752,1821.118408 2106.000000,1830.000000 
	C2096.291260,1842.067261 2093.406738,1842.621826 2080.000000,1834.999878 
	C2067.822021,1828.076538 2062.883057,1828.737305 2054.071045,1840.055298 
	C2041.443237,1856.273804 2035.062988,1875.400024 2030.049438,1895.012695 
	C2028.520630,1900.992920 2027.518311,1906.966675 2022.059082,1911.078491 
	C2018.969482,1913.405518 2018.744629,1917.265381 2017.749878,1920.932129 
	C2015.144409,1930.536377 2012.521851,1930.109863 2001.927979,1928.463745 
	C1994.914185,1927.374146 1989.786621,1923.058716 1983.198853,1921.268433 
	C1969.126099,1917.443970 1958.802124,1923.719360 1949.340088,1930.476196 
	C1942.497925,1935.362549 1935.015259,1939.780640 1927.869385,1941.436035 
	C1907.952637,1946.049683 1896.212891,1959.180054 1886.000000,1975.000000 
"/>
<path fill="none" opacity="1.000000" stroke="#b8b8b8" stroke-linecap="round" stroke-linejoin="round" stroke-width="5.000000"
	d="
M2145.000000,1826.000000 
	C2148.630859,1828.714478 2152.261719,1831.428955 2155.976074,1834.205933 
	C2160.498047,1832.520386 2164.763184,1830.610107 2167.990967,1826.991943 
	C2172.801758,1821.599487 2176.604980,1823.662354 2181.073730,1827.922607 
	C2195.832520,1841.991943 2196.283691,1842.427368 2212.848877,1832.741455 
	C2220.174072,1828.458496 2225.124512,1830.942139 2229.908691,1835.105103 
	C2240.930664,1844.695557 2246.843750,1857.843994 2251.757080,1871.090088 
	C2255.329102,1880.719238 2258.903076,1890.521362 2260.166992,1900.979858 
	C2260.837158,1906.527588 2263.838867,1911.356567 2270.000000,1913.000000 
"/>
<path fill="none" opacity="1.000000" stroke="#b8b8b8" stroke-linecap="round" stroke-linejoin="round" stroke-width="5.000000"
	d="
M1899.000000,1691.000000 
	C1909.180542,1691.768921 1917.685181,1696.832886 1925.942383,1702.090454 
	C1934.220825,1707.361694 1935.872803,1713.555054 1933.024170,1723.007324 
	C1927.607056,1740.982056 1920.062134,1758.299561 1916.926392,1776.987671 
	C1914.755371,1789.926636 1914.497437,1803.016846 1913.000000,1816.000000 
"/>
<path fill="none" opacity="1.000000" stroke="#b8b8b8" stroke-linecap="round" stroke-linejoin="round" stroke-width="5.000000"
	d="
M2392.000000,1691.000000 
	C2396.978516,1694.808594 2398.229980,1699.807251 2398.130859,1706.002075 
	C2397.790039,1727.329956 2398.140137,1748.667847 2397.951172,1769.999512 
	C2397.823242,1784.436646 2393.023193,1798.081421 2389.714111,1811.931763 
	C2389.185303,1814.145264 2387.543945,1817.719238 2383.016602,1818.167725 
	C2363.047119,1820.145996 2352.691406,1829.270630 2350.122559,1848.016846 
	C2346.574219,1873.911743 2341.018066,1899.160400 2330.000000,1923.000000 
"/>
<path fill="none" opacity="1.000000" stroke="#b8b8b8" stroke-linecap="round" stroke-linejoin="round" stroke-width="5.000000"
	d="
M763.000000,1500.000000 
	C781.478210,1503.971924 800.188782,1504.542725 819.001709,1504.068726 
	C824.412048,1503.932373 829.034363,1506.126709 832.504089,1510.832153 
	C827.223511,1523.293335 816.335205,1529.967041 806.954651,1537.946777 
	C797.953430,1545.603638 787.064087,1551.176147 780.991211,1561.995117 
	C780.048584,1563.674438 778.366333,1562.798584 777.000000,1563.000000 
"/>
<path fill="none" opacity="1.000000" stroke="#b8b8b8" stroke-linecap="round" stroke-linejoin="round" stroke-width="5.000000"
	d="
M1901.000000,1818.000000 
	C1892.981445,1826.371094 1896.684814,1835.003540 1899.910400,1844.031982 
	C1909.559448,1871.040894 1924.284424,1895.266724 1939.969849,1919.019897 
	C1942.517700,1922.878296 1944.666748,1927.000000 1947.000000,1931.000000 
"/>
<path fill="none" opacity="1.000000" stroke="#b8b8b8" stroke-linecap="round" stroke-linejoin="round" stroke-width="5.000000"
	d="
M2387.000000,1818.000000 
	C2394.654297,1823.796021 2392.940918,1831.746094 2390.859131,1838.959351 
	C2383.866455,1863.190674 2370.283936,1884.310303 2357.928467,1905.959229 
	C2353.030762,1914.541138 2347.333252,1922.666626 2342.000000,1931.000000 
"/>
<path fill="none" opacity="1.000000" stroke="#b8b8b8" stroke-linecap="round" stroke-linejoin="round" stroke-width="5.000000"
	d="
M1435.000000,1996.000000 
	C1424.334106,2006.620605 1409.671753,2010.045044 1396.890747,2016.792969 
	C1381.350708,2024.997437 1365.021362,2031.713867 1348.986816,2038.970825 
	C1344.239380,2041.119385 1339.393066,2043.140503 1334.000000,2043.000000 
"/>
<path fill="none" opacity="1.000000" stroke="#b8b8b8" stroke-linecap="round" stroke-linejoin="round" stroke-width="5.000000"
	d="
M2298.000000,1880.000000 
	C2291.673096,1881.128296 2288.936035,1886.061035 2285.941162,1890.964111 
	C2282.185303,1897.113281 2278.908936,1903.971069 2273.783447,1908.768555 
	C2266.405029,1915.674561 2271.366455,1921.666260 2274.308594,1926.823975 
	C2277.655029,1932.690186 2283.834229,1930.580811 2288.992188,1927.984619 
	C2293.387939,1925.772217 2297.679688,1922.391479 2302.081299,1921.340942 
	C2313.181152,1918.691406 2324.184570,1919.149536 2334.096436,1926.876343 
	C2342.972656,1933.795654 2353.074463,1938.748047 2363.979980,1942.065796 
	C2378.154297,1946.377930 2390.001221,1954.215210 2397.914551,1967.052734 
	C2399.703613,1969.955200 2401.573975,1972.652832 2404.000000,1975.000000 
"/>
<path fill="none" opacity="1.000000" stroke="#b8b8b8" stroke-linecap="round" stroke-linejoin="round" stroke-width="5.000000"
	d="
M1992.000000,1879.000000 
	C1983.959839,1882.534912 1988.463135,1890.579102 1986.651245,1896.209595 
	C1984.241333,1903.697754 1985.282959,1912.722046 1987.000000,1921.000000 
"/>
</svg>
